<svg id="Info" enable-background="new 0 0 64 64" viewBox="0 0 64 64" xmlns="http://www.w3.org/2000/svg"><g><circle cx="32" cy="32" fill="#79b6ef" r="32"/><path d="m42.55089 50.21204c0 1.62089-1.31399 2.93488-2.93487 2.93488h-14.24454c-1.62089 0-2.93487-1.31399-2.93487-2.93488 0-1.62089 1.31399-2.93488 2.93487-2.93488h2.73365v-16.43884h-4.2423c-1.33482 0-2.41373-1.0971-2.41373-2.43203 0-1.06049.67656-1.99308 1.68225-2.30391l.91429-.29263c2.67894-.85646 5.48491-1.27716 8.30944-1.27999 2.47953-.00248 4.50887 2.01876 4.50887 4.4983v18.24911h2.75207c1.62088-.00001 2.93487 1.31398 2.93487 2.93487z" fill="#f0f0fc"/><circle cx="32.26" cy="15.466" fill="#f0f0fc" r="4.613"/><path d="m54.62176 54.62019c-10.66468 10.66483-26.94127 12.22491-39.25942 4.72704 24.31883-3.21318 42.26443-21.67267 30.03843-56.42101 3.35313 1.56024 6.47331 3.70247 9.22099 6.45015 12.50433 12.48102 12.50433 32.76279 0 45.24382z" opacity=".1"/></g></svg>